<?xml version="1.0" encoding="UTF-8" ?>
<!DOCTYPE svg PUBLIC "-//W3C//DTD SVG 1.1//EN" "http://www.w3.org/Graphics/SVG/1.1/DTD/svg11.dtd">
<svg width="96pt" height="96pt" viewBox="0 0 96 96" version="1.1" xmlns="http://www.w3.org/2000/svg">
<g id="#34d399ff">
<path fill="#34d399" opacity="1.00" d=" M 18.00 20.96 C 17.73 18.88 18.93 16.68 21.02 16.13 C 24.06 15.88 27.11 15.95 30.15 16.05 C 32.13 16.05 34.03 17.84 33.95 19.87 C 34.08 27.63 33.95 35.40 34.00 43.17 C 45.31 35.11 56.68 27.13 67.98 19.05 C 69.81 17.80 71.60 15.85 74.00 16.03 C 76.46 16.11 78.28 18.56 77.99 20.94 C 78.01 38.99 78.01 57.06 77.99 75.11 C 78.58 78.79 73.94 81.46 71.04 79.15 C 58.74 70.31 46.33 61.62 34.00 52.83 C 33.95 60.59 34.08 68.35 33.96 76.11 C 33.99 78.14 32.10 80.02 30.07 79.96 C 27.07 80.04 24.05 80.12 21.06 79.88 C 18.90 79.44 17.75 77.10 18.00 75.05 C 18.00 57.02 18.00 38.99 18.00 20.96 Z" />
</g>
</svg>
